<?xml version="1.0" encoding="utf-8"?>
<!-- Generator: Adobe Illustrator 21.0.0, SVG Export Plug-In . SVG Version: 6.00 Build 0)  -->
<svg version="1.1" id="Layer_1" xmlns="http://www.w3.org/2000/svg" xmlns:xlink="http://www.w3.org/1999/xlink" x="0px" y="0px"
	 viewBox="0 0 640 160" style="enable-background:new 0 0 640 160;" xml:space="preserve">
<style type="text/css">
	.st0{fill:#66D9E8;}
</style>
<g>
	<path d="M217.8,15.8h11.5v48h24.6v10.1h-36V15.8z"/>
	<path d="M263.6,15.8h36.2V26h-24.7v12.5h22.4v10.1h-22.4v15.2h24.7v10.1h-36.2V15.8z"/>
	<path d="M329,75.1c-3.5,0-6.5-0.7-9-2c-2.5-1.3-4.6-3.2-6.2-5.6c-3.5-5.1-5.2-12.6-5.2-22.5c0-5,0.4-9.3,1.3-13.1
		c0.9-3.7,2.2-6.9,3.9-9.5c1.8-2.6,4-4.6,6.6-5.8c2.6-1.2,5.5-1.8,8.6-1.8c3.4,0,6.4,0.6,8.9,1.9s4.7,3.2,6.4,5.7
		c3.4,5.1,5.1,12.6,5.1,22.5c0,9.9-1.7,17.4-5.1,22.5c-1.7,2.5-3.8,4.4-6.3,5.7C335.5,74.4,332.5,75.1,329,75.1z M329,64.8
		c3,0,5.1-1.6,6.5-4.7c1.3-3.1,2-8.1,2-15.1c0-7-0.7-12-2-15.1c-1.3-3.1-3.5-4.7-6.5-4.7c-1.5,0-2.8,0.4-3.9,1.2
		c-1,0.8-1.9,2-2.6,3.5c-1.3,3.1-2,8.1-2,15.1c0,7,0.7,12.1,2,15.1C323.9,63.2,326.1,64.8,329,64.8z"/>
	<path d="M357.6,15.8H370l16.2,42.2V15.8h10.1v58.1H384l-16.3-42.2v42.2h-10.1V15.8z"/>
	<path d="M418,15.8h14l15.7,58.1h-11.5l-3.6-14.4h-15.4l-3.5,14.4h-11.5L418,15.8z M430.4,50.1L425,26.3l-5.4,23.8H430.4z"/>
	<path d="M454.2,15.8h16.6c7.5,0,12.8,1.3,16.1,4c1.6,1.3,2.9,3.1,3.7,5.2c0.8,2.2,1.2,4.7,1.2,7.5c0,2.2-0.2,4-0.7,5.6
		c-0.5,1.6-1.2,2.9-2.2,4.1c-0.9,1.1-2.1,2.1-3.4,2.8c-1.4,0.7-3,1.2-5,1.5c0.6,0.1,1.2,0.3,1.7,0.6c0.5,0.3,1,0.6,1.3,1
		c0.4,0.4,0.8,1,1.3,1.8s1.1,1.9,1.7,3.2L497,73.9h-12.6l-7-14.7l-0.8-1.7c-1.1-2.2-2.2-3.9-3.3-5c-1.1-1.1-2.4-1.6-3.9-1.6h-3.7v23
		h-11.5V15.8z M471,41.3c3.1,0,5.4-0.6,6.8-1.9c0.6-0.6,1.1-1.3,1.5-2.3c0.4-1,0.5-2.2,0.5-3.8c0-2.9-0.7-4.9-2-6.1
		c-1.4-1.2-3.6-1.8-6.8-1.8h-5.4v15.8H471z"/>
	<path d="M502.3,15.8h12.3c9.5,0,16.3,2.3,20.5,6.8c2,2.2,3.6,5.2,4.7,8.9c1.1,3.7,1.6,8.1,1.6,13.4c0,10.2-2.1,17.7-6.3,22.2
		c-4.2,4.6-11,6.8-20.5,6.8h-12.3V15.8z M516.9,63.6c4.5,0,7.7-1.4,9.7-4.3c1.9-2.9,2.9-7.7,2.9-14.5c0-6.7-1-11.5-2.9-14.4
		c-1.9-2.8-5.1-4.2-9.7-4.2h-3.1v37.4H516.9z"/>
	<path d="M568.9,75.1c-3.5,0-6.5-0.7-9-2c-2.5-1.3-4.6-3.2-6.2-5.6c-3.5-5.1-5.2-12.6-5.2-22.5c0-5,0.4-9.3,1.3-13.1
		c0.9-3.7,2.2-6.9,3.9-9.5c1.8-2.6,4-4.6,6.6-5.8c2.6-1.2,5.5-1.8,8.6-1.8c3.4,0,6.4,0.6,8.9,1.9c2.5,1.3,4.7,3.2,6.4,5.7
		c3.4,5.1,5.1,12.6,5.1,22.5c0,9.9-1.7,17.4-5.1,22.5c-1.7,2.5-3.8,4.4-6.3,5.7C575.4,74.4,572.4,75.1,568.9,75.1z M568.9,64.8
		c3,0,5.1-1.6,6.5-4.7c1.3-3.1,2-8.1,2-15.1c0-7-0.7-12-2-15.1c-1.3-3.1-3.5-4.7-6.5-4.7c-1.5,0-2.8,0.4-3.9,1.2
		c-1,0.8-1.9,2-2.6,3.5c-1.3,3.1-2,8.1-2,15.1c0,7,0.7,12.1,2,15.1C563.8,63.2,566,64.8,568.9,64.8z"/>
	<path d="M232.9,147.2c-1,0-1.9-0.2-2.7-0.5c-0.8-0.4-1.5-0.9-2.1-1.5c-1.3-1.3-2-3-2-5.1c0-2.1,0.7-3.9,2-5.2c1.3-1.3,2.9-2,4.9-2
		c0.9,0,1.8,0.2,2.6,0.5c0.8,0.3,1.6,0.8,2.3,1.5c1.3,1.3,2,3.1,2,5.2c0,2.1-0.7,3.8-2,5.1C236.5,146.6,234.8,147.2,232.9,147.2z"/>
	<path d="M285.1,146.7c-3.7,0-7-0.7-9.9-2c-2.9-1.3-5.4-3.3-7.4-5.9c-1.9-2.5-3.5-5.6-4.5-9.3s-1.6-8.1-1.6-13.1
		c0-4.8,0.5-9.1,1.5-12.8c1-3.7,2.6-6.9,4.7-9.5c4.2-5.2,10.1-7.7,17.7-7.7c1.3,0,2.5,0.1,3.7,0.2c1.1,0.2,2.3,0.4,3.4,0.7
		c2.2,0.6,4.3,1.6,6.3,2.9V103c-1.6-2.1-3.5-3.6-5.5-4.7c-2.1-1-4.4-1.6-6.8-1.6c-4.4,0-7.7,1.6-9.8,4.9c-2.2,3.3-3.2,8.3-3.2,14.9
		c0,3.2,0.3,6.1,0.8,8.6c0.5,2.5,1.3,4.6,2.3,6.3c1,1.6,2.2,2.8,3.7,3.7c1.5,0.9,3.3,1.3,5.4,1.3c0.5,0,1.1,0,1.6-0.1s1-0.1,1.5-0.3
		c0.6-0.1,1-0.3,1.3-0.4c0.3-0.2,0.6-0.3,0.9-0.5V124h-7.9v-9.7H301V141c-2.2,1.9-4.6,3.3-7.3,4.3c-1.3,0.5-2.7,0.9-4.1,1.1
		C288.2,146.6,286.7,146.7,285.1,146.7z"/>
	<path d="M322,87.5h14l15.7,58.1h-11.5l-3.6-14.4h-15.4l-3.5,14.4h-11.5L322,87.5z M334.5,121.8L329,98l-5.4,23.8H334.5z"/>
	<path d="M361.8,87.5h11.5v48h24.6v10.1h-36V87.5z"/>
	<path d="M418,87.5h14l15.7,58.1h-11.5l-3.6-14.4h-15.4l-3.5,14.4h-11.5L418,87.5z M430.4,121.8L425,98l-5.4,23.8H430.4z"/>
	<path d="M453.6,87.5h12.3l16.2,42.2V87.5h10.1v58.1H480l-16.3-42.2v42.2h-10.1V87.5z"/>
	<path d="M515.2,97.5h-14.8v-10h41v10h-14.7v48.1h-11.5V97.5z"/>
	<path d="M551.5,87.5h36.2v10.1H563v12.5h22.4v10.1H563v15.2h24.7v10.1h-36.2V87.5z"/>
</g>
<polygon class="st0" points="83,0.1 17.2,31.7 1,102.9 46.5,159.9 119.5,159.9 165,102.9 148.8,31.7 "/>
</svg>
