<svg width="30" height="44" viewBox="0 0 30 44" fill="none" xmlns="http://www.w3.org/2000/svg">
<path d="M28.4674 21.9339L22.5661 18.5711C21.8086 18.1378 20.8573 18.1378 20.0822 18.5711L12.8773 22.6619C12.4193 22.922 12.155 23.3726 12.155 23.8927C12.155 24.3953 12.4193 24.8634 12.8773 25.1234L19.1309 28.6768V31.6929L10.5696 26.8221V11.7416L19.6947 16.8898C20.0117 17.0631 20.3641 17.1498 20.7164 17.1498C21.0687 17.1498 21.4386 17.0631 21.7557 16.8724L29.3306 12.5736C29.7534 12.3309 30 11.9149 30 11.4469C30 10.9789 29.7534 10.5455 29.3306 10.3202L11.7851 0.439872C10.7281 -0.149482 9.42454 -0.149481 8.36758 0.457206L0.229016 5.08536C0.2114 5.10269 0.193776 5.12003 0.17616 5.13736C0.158544 5.1547 0.14093 5.1547 0.123314 5.17203C0.105698 5.18936 0.0880798 5.2067 0.0880798 5.22403C0.0704639 5.24137 0.0528565 5.2587 0.0528565 5.27603C0.0352405 5.29337 0.0352341 5.3107 0.0352341 5.32804C0.0352341 5.34537 0.0176224 5.3627 0.0176224 5.39737C0.0176224 5.41471 0.0176224 5.43204 0.0176224 5.46671C0.0176224 5.48404 0 5.51871 0 5.53604V30.8436C0 32.1089 0.687031 33.2876 1.81445 33.929L19.4304 43.9307C19.5009 43.9827 19.6066 44 19.6947 44C19.7827 44 19.8708 43.9827 19.9589 43.9307L28.3089 39.1812C29.2249 38.6612 29.7886 37.6905 29.7886 36.6504V24.118C29.7534 23.2166 29.2601 22.3846 28.4674 21.9339ZM8.87845 1.3239C9.61832 0.907887 10.5343 0.907887 11.2742 1.30657L28.8373 11.2042C28.9783 11.2736 28.9959 11.4122 28.9959 11.4642C28.9959 11.5162 28.9783 11.6376 28.8373 11.7243L21.2625 16.0231C20.9454 16.2137 20.5402 16.2137 20.2231 16.0231L1.51498 5.50138L8.87845 1.3239ZM28.714 36.6331C28.714 37.3091 28.3441 37.9505 27.7451 38.2798L20.1527 42.596V32.5769V28.3995C20.1527 28.2261 20.047 28.0528 19.8884 27.9661L13.3881 24.2567C13.1944 24.1527 13.1768 23.9793 13.1768 23.91C13.1768 23.8407 13.1944 23.6673 13.3881 23.5633L20.5931 19.4725C21.0335 19.2125 21.5972 19.2125 22.0376 19.4725L27.9389 22.8353C28.4146 23.0953 28.6964 23.598 28.6964 24.1353V36.6331H28.714Z" fill="white"/>
	<style>
    @media (prefers-color-scheme:light){:root{filter:invert(100%)}}
  </style>
</svg>
