<svg id="Layer_1" data-name="Layer 1" xmlns="http://www.w3.org/2000/svg" viewBox="0 0 32.9 37.99"><defs><style>.cls-1{fill:#212121;}.cls-2{fill:#fff;}</style></defs><title>portfolio</title><polygon class="cls-1" points="0 9.5 16.45 0 32.9 9.5 32.9 28.49 16.45 37.99 0 28.49 0 9.5"/><path class="cls-2" d="M56.86,48.15H43.14V45.21A1.23,1.23,0,0,1,44.36,44h2.7V42.76A.74.74,0,0,1,47.8,42h4.41a.74.74,0,0,1,.74.74V44h2.7a1.23,1.23,0,0,1,1.23,1.23Zm0,4.41a1.23,1.23,0,0,1-1.23,1.23H44.36a1.23,1.23,0,0,1-1.23-1.23V48.89h5.15v1.23a.49.49,0,0,0,.49.49h2.45a.49.49,0,0,0,.49-.49V48.89h5.15ZM52,44V43H48v1Zm-1,5.88H49v-1h2Z" transform="translate(-33.55 -29.74)"/></svg>