<?xml version="1.0" standalone="no"?>
<!DOCTYPE svg PUBLIC "-//W3C//DTD SVG 20010904//EN"
 "http://www.w3.org/TR/2001/REC-SVG-20010904/DTD/svg10.dtd">
<svg version="1.0" xmlns="http://www.w3.org/2000/svg"
 width="260.000000pt" height="260.000000pt" viewBox="0 0 260.000000 260.000000"
 preserveAspectRatio="xMidYMid meet">
<metadata>
Created by potrace 1.11, written by Peter Selinger 2001-2013
</metadata>
<g transform="translate(0.000000,260.000000) scale(0.100000,-0.100000)"
fill="#000000" stroke="none">
<path d="M1099 2447 c-103 -51 -276 -135 -385 -187 -110 -52 -248 -120 -309
-150 l-110 -55 -22 -94 c-12 -52 -24 -106 -27 -120 -2 -14 -21 -98 -41 -186
-21 -88 -41 -176 -45 -195 -4 -19 -31 -136 -59 -258 -47 -201 -51 -226 -38
-245 12 -17 559 -706 610 -767 7 -8 25 -31 40 -51 l27 -37 559 0 559 0 258
326 c143 178 264 330 269 336 6 6 45 55 88 109 83 104 83 103 61 182 -4 14
-55 237 -59 256 -2 8 -10 44 -18 80 -17 71 -57 245 -62 269 -2 8 -8 33 -13 55
-6 22 -13 51 -16 65 -2 14 -11 55 -20 93 -9 37 -18 79 -21 95 -16 86 -14 84
-130 142 -61 30 -175 86 -255 124 -80 39 -251 121 -379 183 -129 63 -244 115
-255 118 -13 2 -97 -34 -207 -88z"/>
</g>
</svg>
