<?xml version="1.0" standalone="no"?>
<!DOCTYPE svg PUBLIC "-//W3C//DTD SVG 20010904//EN"
 "http://www.w3.org/TR/2001/REC-SVG-20010904/DTD/svg10.dtd">
<svg version="1.0" xmlns="http://www.w3.org/2000/svg"
 width="640.000000pt" height="640.000000pt" viewBox="0 0 640.000000 640.000000"
 preserveAspectRatio="xMidYMid meet">
<metadata>
Created by potrace 1.11, written by Peter Selinger 2001-2013
</metadata>
<g transform="translate(0.000000,640.000000) scale(0.100000,-0.100000)"
fill="#000000" stroke="none">
<path d="M780 3978 c-25 -12 -148 -72 -275 -133 -126 -61 -253 -122 -282 -135
-33 -15 -53 -30 -56 -44 -3 -11 -21 -93 -41 -181 -21 -88 -46 -200 -58 -250
-11 -49 -21 -94 -22 -100 -1 -5 -10 -45 -20 -87 l-18 -77 34 -43 c18 -23 38
-47 43 -54 6 -6 19 -23 30 -38 11 -16 25 -33 30 -40 6 -6 80 -98 164 -203
l154 -193 367 0 367 0 50 63 c27 34 130 162 228 285 l178 223 -52 227 c-29
125 -66 286 -83 358 l-31 131 -61 28 c-34 16 -144 69 -246 118 -201 97 -350
167 -353 167 -1 -1 -22 -11 -47 -22z"/>
<path d="M3241 3849 c-119 -26 -176 -180 -147 -399 19 -149 125 -226 258 -189
65 17 112 80 135 179 10 45 3 214 -11 263 -34 115 -123 171 -235 146z m98
-125 c32 -41 44 -147 29 -257 -9 -68 -29 -103 -65 -112 -63 -15 -95 48 -96
189 0 120 13 176 47 198 24 16 65 8 85 -18z"/>
<path d="M5645 3850 c-108 -24 -157 -118 -157 -303 0 -151 37 -238 118 -278
83 -40 189 -13 238 61 70 106 64 371 -10 460 -45 53 -117 76 -189 60z m94
-126 c24 -31 33 -70 34 -156 2 -136 -17 -194 -66 -211 -66 -22 -101 46 -100
199 1 95 14 153 40 179 23 24 69 19 92 -11z"/>
<path d="M2188 3839 c-8 -5 -15 -436 -9 -561 1 -16 17 -18 181 -18 l180 0 -3
52 -2 52 -120 0 -120 1 0 238 c0 151 -4 237 -10 238 -55 4 -89 3 -97 -2z"/>
<path d="M2642 3835 c-4 -5 -7 -137 -7 -292 l0 -283 181 0 181 0 1 38 c3 68 5
67 -128 66 l-120 -1 0 73 0 74 100 1 c55 1 106 2 112 3 12 1 20 95 9 97 -4 1
-53 2 -111 3 l-105 1 -3 63 -3 62 125 0 125 0 -1 50 c0 39 -3 50 -16 51 -108
6 -335 2 -340 -6z"/>
<path d="M3593 3839 c-14 -5 -16 -35 -15 -272 0 -147 1 -276 1 -287 1 -17 8
-20 50 -20 l48 0 0 196 c1 107 3 197 5 200 4 3 65 -145 73 -176 1 -3 5 -14 10
-25 5 -11 23 -58 41 -105 l32 -85 61 -3 c61 -3 61 -3 62 25 4 139 3 537 -3
545 -7 13 -57 17 -80 6 -14 -7 -16 -30 -16 -180 0 -95 -1 -186 -2 -203 0 -22
-11 -3 -40 75 -22 58 -58 152 -81 210 l-40 105 -45 0 c-25 0 -52 -3 -61 -6z"/>
<path d="M4181 3836 c-4 -6 -22 -65 -40 -131 -17 -66 -45 -172 -62 -235 -29
-107 -41 -152 -50 -190 -3 -12 8 -15 52 -17 l56 -2 19 72 19 72 65 1 c36 0 70
-1 77 -4 6 -2 19 -34 28 -71 l16 -68 55 -1 c41 0 54 3 54 15 0 13 -79 314
-115 438 -8 28 -19 68 -24 90 l-10 40 -66 1 c-36 0 -69 -4 -74 -10z m98 -223
c11 -50 21 -96 21 -102 0 -6 -21 -11 -50 -11 -33 0 -50 4 -50 13 0 6 9 48 20
92 11 44 20 89 20 100 0 39 18 -2 39 -92z"/>
<path d="M4558 3842 c-14 -3 -16 -38 -16 -293 l0 -289 59 0 58 0 -1 83 c0 148
-1 147 25 147 39 0 62 -26 112 -129 l49 -101 63 0 63 0 -60 120 c-33 66 -69
129 -79 139 -18 18 -17 18 15 30 43 16 66 53 69 115 5 89 -32 146 -108 167
-37 10 -214 18 -249 11z m221 -117 c10 -10 16 -32 15 -61 0 -60 -21 -76 -88
-72 l-49 3 1 65 c0 36 1 70 1 76 1 17 101 8 120 -11z"/>
<path d="M5038 3842 c-14 -3 -16 -38 -16 -293 l0 -289 92 0 c114 0 185 20 231
64 54 53 79 171 64 301 -14 113 -65 180 -155 204 -40 11 -184 19 -216 13z
m206 -128 c42 -27 62 -133 44 -234 -14 -81 -43 -109 -118 -115 -35 -3 -31 -24
-31 210 0 80 0 150 0 156 1 15 75 4 105 -17z"/>
<path d="M2775 3130 c-46 -14 -111 -74 -129 -120 -50 -125 -34 -317 34 -403
54 -69 186 -91 277 -46 l48 24 3 138 3 137 -91 0 -90 0 0 -50 c0 -27 3 -49 8
-49 4 1 22 1 40 0 l32 -1 0 -55 c0 -73 -27 -85 -112 -50 -34 14 -60 90 -60
173 1 88 4 108 26 151 33 64 126 76 192 26 l35 -27 -3 64 c-3 59 -5 64 -33 77
-36 18 -138 24 -180 11z"/>
<path d="M3210 3093 c-6 -21 -41 -152 -79 -290 l-68 -253 58 0 c63 0 58 -6 79
88 l12 52 78 0 78 0 12 -52 c21 -94 15 -88 81 -88 33 0 58 4 55 8 -2 4 -18 59
-35 122 -34 132 -85 321 -107 398 l-15 52 -69 0 -69 0 -11 -37z m87 -95 c0 -7
10 -55 22 -105 11 -51 21 -96 21 -100 0 -5 -23 -8 -51 -8 -58 -1 -55 -13 -25
125 17 80 23 100 29 100 2 0 4 -6 4 -12z"/>
<path d="M3619 3113 c-3 -87 0 -552 4 -559 3 -5 83 -9 179 -9 l173 0 2 52 2
53 -107 -1 c-59 0 -115 0 -124 0 -15 1 -17 21 -17 219 0 119 0 227 0 240 -1
20 -6 22 -56 22 -45 0 -55 -3 -56 -17z"/>
<path d="M4170 3093 c-5 -21 -40 -150 -78 -288 l-68 -250 46 -5 c25 -3 50 -4
56 -2 7 2 20 35 30 73 l18 69 77 0 76 0 13 -59 c7 -32 15 -64 19 -70 9 -14
117 -19 114 -5 -2 17 -134 508 -144 542 l-11 32 -68 0 -69 0 -11 -37z m107
-186 c31 -126 31 -123 -21 -122 -25 0 -47 3 -51 6 -3 4 4 54 17 112 13 58 25
103 28 101 2 -3 14 -46 27 -97z"/>
<path d="M4539 3116 c-1 -15 -1 -526 0 -551 1 -18 8 -20 49 -20 l47 0 2 190
c2 236 2 228 19 180 8 -22 18 -49 24 -60 5 -11 33 -81 61 -155 28 -74 56 -139
60 -145 5 -5 32 -10 60 -11 37 -1 52 3 57 15 6 12 8 483 3 559 -1 9 -15 12
-48 10 l-48 -3 -1 -198 c-1 -109 -4 -200 -6 -202 -2 -2 -27 60 -56 138 -30 78
-59 156 -66 172 -7 17 -19 45 -26 62 -12 32 -14 32 -71 32 -37 -1 -59 -5 -60
-13z"/>
<path d="M5009 3127 c0 -1 -2 -23 -3 -49 l-3 -48 36 -1 c20 0 53 -1 75 -2 l39
-2 -1 -237 c-1 -200 2 -238 14 -239 8 0 33 -1 57 -1 l42 -1 2 159 c1 87 2 196
3 242 l0 82 74 0 73 0 -2 43 c-2 23 -3 45 -4 49 -1 6 -398 10 -402 5z"/>
<path d="M5518 3117 c-3 -7 -4 -138 -4 -292 l1 -280 180 0 180 0 2 52 3 51
-38 0 c-20 0 -76 0 -124 1 l-88 1 0 74 0 74 98 0 c53 0 104 0 113 1 13 1 16
11 15 51 l-1 50 -113 0 -113 0 3 63 3 62 120 0 120 0 2 52 3 51 -179 0 c-128
0 -181 -3 -183 -11z"/>
<path d="M2281 2649 c-55 -59 7 -142 83 -113 8 3 20 22 27 41 10 31 9 39 -8
62 -27 35 -74 40 -102 10z"/>
</g>
</svg>
