<?xml version="1.0" standalone="no"?>
<!DOCTYPE svg PUBLIC "-//W3C//DTD SVG 20010904//EN"
 "http://www.w3.org/TR/2001/REC-SVG-20010904/DTD/svg10.dtd">
<svg version="1.0" xmlns="http://www.w3.org/2000/svg"
 width="512.000000pt" height="512.000000pt" viewBox="0 0 512.000000 512.000000"
 preserveAspectRatio="xMidYMid meet">
<metadata>
Created by potrace 1.11, written by Peter Selinger 2001-2013
</metadata>
<g transform="translate(0.000000,512.000000) scale(0.100000,-0.100000)"
fill="#000000" stroke="none">
<path d="M1490 5003 c0 -5 -22 -31 -48 -59 -63 -67 -92 -106 -92 -121 0 -7 -4
-13 -9 -13 -10 0 -13 -5 -73 -125 -45 -87 -83 -203 -95 -290 -3 -22 -9 -44
-13 -50 -8 -11 -5 -319 3 -370 18 -105 85 -300 129 -375 68 -114 175 -229 280
-299 31 -21 54 -42 51 -45 -4 -3 -1 -6 6 -6 7 0 32 -13 56 -30 24 -16 46 -30
48 -30 3 0 34 -17 68 -38 35 -22 109 -63 164 -92 55 -29 112 -59 126 -68 l26
-15 -106 -107 c-121 -123 -212 -219 -291 -310 -30 -35 -66 -75 -80 -90 -14
-14 -37 -42 -51 -60 -15 -19 -37 -47 -50 -61 -13 -14 -35 -41 -49 -59 -14 -17
-35 -43 -47 -56 -13 -14 -23 -27 -23 -30 0 -7 -27 -34 -34 -34 -4 0 -4 19 -1
42 3 23 6 59 7 80 1 21 6 38 12 38 7 0 7 3 1 8 -5 4 -10 50 -11 102 -2 240
-52 359 -219 525 -80 79 -106 101 -141 117 -13 6 -24 15 -24 20 0 4 -7 8 -15
8 -8 0 -15 5 -15 10 0 6 -3 9 -7 8 -5 0 -24 6 -43 14 -77 33 -75 32 -125 43
-56 13 -55 12 -57 15 -14 10 -218 21 -218 11 0 -3 -20 -6 -44 -6 -55 1 -67 -8
-89 -63 -15 -37 -21 -61 -43 -157 -10 -43 -3 -217 11 -284 21 -101 113 -311
136 -311 5 0 9 -5 9 -10 0 -10 15 -28 90 -111 27 -29 168 -129 183 -129 5 0
23 -6 40 -14 45 -20 133 -41 207 -51 19 -3 46 -7 60 -10 14 -2 50 -7 80 -10
62 -7 113 -15 117 -19 4 -3 -90 -130 -99 -134 -5 -2 -8 -10 -8 -18 0 -8 -4
-14 -10 -14 -5 0 -10 -4 -10 -8 0 -7 -147 -235 -178 -277 -4 -5 -13 -21 -19
-35 -7 -14 -17 -32 -23 -40 -29 -44 -99 -170 -105 -191 -4 -13 -10 -26 -14
-29 -7 -6 -71 -133 -71 -142 0 -3 -16 -41 -36 -84 -21 -43 -36 -80 -36 -81 1
-2 -10 -27 -23 -57 -13 -30 -21 -57 -18 -60 4 -3 0 -6 -7 -6 -7 0 -11 -3 -7
-6 3 -3 -3 -26 -14 -50 -10 -25 -15 -42 -10 -39 6 3 3 -8 -5 -24 -8 -17 -17
-38 -19 -48 -2 -10 -13 -49 -24 -86 -11 -38 -22 -83 -25 -100 -3 -18 -12 -66
-20 -107 -8 -42 -13 -82 -11 -90 8 -38 18 -60 26 -60 5 0 9 -5 9 -11 0 -9 65
-80 73 -78 1 0 19 -7 40 -16 59 -24 162 -5 226 44 39 29 74 61 66 61 -2 0 0
11 5 25 5 13 10 40 12 60 1 19 5 35 8 35 3 0 5 10 6 23 1 26 12 83 21 112 4
11 8 27 9 35 4 25 12 54 23 82 6 16 9 28 7 28 -3 0 4 25 15 55 10 30 19 61 19
70 0 8 5 15 12 15 6 0 9 3 6 6 -6 5 30 119 56 179 8 17 22 53 32 80 10 28 24
61 31 74 6 14 10 28 7 33 -3 4 -1 8 4 8 4 0 19 23 32 51 l23 52 29 -34 c108
-126 320 -346 378 -393 76 -61 197 -130 247 -140 10 -1 25 -6 33 -9 8 -4 29
-9 45 -12 17 -3 44 -9 60 -12 37 -7 243 -7 306 1 25 3 58 10 75 16 16 6 31 11
34 11 27 -1 142 39 152 53 4 6 8 8 8 3 0 -7 99 40 110 52 3 4 17 13 32 21 68
39 248 209 248 235 0 3 11 18 25 33 14 15 25 34 25 42 -1 40 -96 201 -163 275
-20 22 -37 43 -37 48 0 4 -4 7 -9 7 -5 0 -28 18 -50 40 -22 22 -43 40 -46 40
-3 0 -26 15 -52 34 -128 91 -353 167 -500 170 -13 0 -23 3 -23 8 0 4 -6 5 -12
3 -7 -3 -47 -7 -88 -9 -133 -6 -270 -51 -394 -131 -54 -34 -173 -121 -186
-135 -3 -3 -27 -23 -55 -45 -27 -21 -52 -42 -55 -45 -17 -18 -130 -111 -130
-107 0 3 22 46 48 94 26 48 54 103 61 121 7 17 17 32 22 32 5 0 9 5 9 11 0 7
27 59 60 116 33 58 60 109 60 114 0 5 3 9 8 9 4 0 23 26 42 58 19 31 38 62 42
67 5 6 26 37 48 70 21 33 53 78 69 100 17 22 34 47 38 55 3 8 9 17 12 20 12
11 68 86 79 107 7 12 18 27 25 35 7 7 24 29 37 48 13 19 27 37 30 40 4 3 38
43 75 90 38 47 70 87 73 90 4 5 29 -22 72 -79 14 -19 33 -43 43 -55 10 -11 30
-36 45 -54 102 -125 223 -246 308 -307 68 -49 165 -103 197 -109 12 -2 36 -9
52 -16 28 -11 71 -20 120 -24 11 -1 25 -4 30 -8 12 -7 266 -2 315 6 19 3 46 8
60 11 14 4 36 8 49 11 14 3 29 8 35 12 6 4 18 7 26 7 8 1 38 11 65 24 28 12
55 24 60 25 19 4 139 78 195 121 71 55 118 102 178 177 47 61 57 84 41 94 -5
3 -7 10 -4 15 4 5 1 9 -6 9 -7 0 -10 3 -7 6 9 8 -56 128 -110 204 -43 60 -144
167 -203 215 -56 45 -206 125 -297 158 -88 32 -132 43 -242 62 -54 9 -181 11
-225 4 -22 -4 -56 -10 -77 -13 -55 -9 -125 -34 -210 -76 -82 -41 -268 -158
-268 -169 0 -3 -12 -12 -27 -18 -30 -14 -38 -25 102 126 101 108 425 430 539
536 60 55 122 112 138 128 16 15 31 27 34 27 10 0 144 132 144 142 0 14 23 9
120 -28 52 -19 102 -37 111 -39 9 -2 25 -8 35 -13 20 -11 86 -31 119 -37 11
-2 20 -4 20 -5 0 -1 7 -3 15 -5 8 -2 26 -7 40 -10 89 -21 340 -24 340 -3 0 4
9 5 20 3 11 -2 20 1 20 7 0 6 3 9 6 5 3 -3 25 1 47 10 23 8 47 16 52 17 6 1
24 10 41 19 17 9 34 13 38 10 3 -4 6 -2 6 4 0 11 59 40 73 35 4 -1 7 2 7 7 0
5 19 20 43 34 47 28 68 46 162 134 36 34 65 67 65 73 0 5 4 10 8 10 5 0 30 33
55 73 26 39 51 78 57 85 6 6 8 12 4 12 -3 0 0 7 7 16 7 9 14 21 15 28 1 6 14
39 27 74 14 34 23 62 21 62 -3 0 0 9 6 20 10 18 13 35 26 120 9 60 6 73 -23
100 -37 34 -123 93 -123 84 0 -4 -8 -1 -17 7 -66 54 -269 116 -401 122 -26 2
-52 6 -59 10 -6 4 -14 3 -18 -3 -4 -7 -12 -7 -24 0 -10 5 -21 7 -24 4 -3 -3
-27 -7 -54 -10 -49 -4 -103 -11 -138 -18 -55 -11 -198 -62 -255 -91 -72 -36
-190 -121 -190 -136 0 -6 -4 -8 -8 -5 -5 3 -15 -6 -22 -19 -7 -14 -20 -25 -27
-25 -8 0 -12 -4 -8 -9 3 -5 0 -13 -6 -17 -40 -24 -228 -377 -264 -494 -10 -31
-45 -83 -52 -76 -3 3 -24 -9 -47 -26 -37 -29 -71 -57 -215 -176 -25 -21 -55
-47 -67 -59 -13 -13 -26 -23 -29 -23 -3 0 -19 -14 -35 -30 -17 -17 -30 -28
-30 -24 0 4 -13 -6 -29 -22 -16 -16 -47 -45 -68 -64 -67 -59 -213 -193 -263
-240 -26 -25 -83 -79 -127 -120 -43 -41 -88 -82 -98 -90 -20 -16 -20 -16 30
65 11 17 20 36 21 42 1 7 12 24 23 39 12 15 21 35 21 45 0 9 3 19 8 21 10 4
72 135 72 153 0 8 5 15 10 15 6 0 10 4 10 9 0 5 8 26 17 47 9 22 18 44 19 49
1 6 11 33 22 62 11 28 17 54 14 57 -3 3 -1 6 4 6 5 0 10 8 10 18 1 9 4 28 7
42 19 83 24 128 22 212 -2 110 -14 188 -27 188 -5 0 -6 5 -3 10 6 10 -6 59
-25 105 -4 11 -18 47 -31 80 -12 33 -27 63 -32 66 -5 3 -8 8 -8 10 4 11 -22
69 -30 69 -5 0 -9 5 -9 11 0 42 -214 288 -304 349 -21 14 -49 34 -64 46 -15
11 -42 27 -59 35 -18 8 -33 17 -33 21 0 5 -5 8 -11 8 -11 0 -88 32 -132 55
-19 10 -26 11 -21 2 6 -9 4 -9 -7 -1 -8 6 -27 15 -44 19 -16 5 -37 10 -45 12
-32 9 -100 13 -100 6z"/>
</g>
</svg>
