<?xml version="1.0" standalone="no"?>
<!DOCTYPE svg PUBLIC "-//W3C//DTD SVG 20010904//EN"
 "http://www.w3.org/TR/2001/REC-SVG-20010904/DTD/svg10.dtd">
<svg version="1.0" xmlns="http://www.w3.org/2000/svg"
 width="260.000000pt" height="260.000000pt" viewBox="0 0 260.000000 260.000000"
 preserveAspectRatio="xMidYMid meet">
<metadata>
Created by potrace 1.11, written by Peter Selinger 2001-2013
</metadata>
<g transform="translate(0.000000,260.000000) scale(0.100000,-0.100000)"
fill="#000000" stroke="none">
<path d="M510 2495 c-10 -12 -13 -106 -12 -403 0 -213 1 -393 1 -400 1 -7 18
-20 39 -28 20 -8 65 -27 100 -41 l62 -26 0 -714 0 -713 -149 0 -149 0 -111
112 c-110 110 -111 112 -93 132 22 24 188 256 215 299 21 34 25 29 -91 146
-46 46 -81 90 -78 96 2 7 32 49 65 93 34 45 61 90 61 100 0 26 -25 45 -47 37
-20 -6 -173 -207 -181 -237 -3 -13 22 -46 92 -116 l96 -98 -64 -90 c-36 -49
-90 -124 -121 -167 -41 -57 -55 -85 -51 -101 3 -11 65 -81 139 -154 l134 -132
961 0 961 0 34 58 c19 31 69 119 112 196 l79 138 -107 322 -107 322 -58 30
c-31 17 -113 62 -182 101 -69 38 -152 85 -185 103 -33 18 -80 44 -105 58 -25
14 -72 40 -105 58 -209 114 -235 130 -223 142 7 7 17 12 24 12 22 0 121 49
126 62 2 7 4 190 3 406 0 473 8 452 -131 360 -44 -29 -86 -57 -95 -63 -9 -5
-43 -28 -75 -49 l-59 -39 -192 0 -192 1 -150 101 c-83 56 -157 101 -164 101
-8 0 -20 -7 -27 -15z"/>
</g>
</svg>
