<?xml version="1.0" standalone="no"?>
<!DOCTYPE svg PUBLIC "-//W3C//DTD SVG 20010904//EN"
 "http://www.w3.org/TR/2001/REC-SVG-20010904/DTD/svg10.dtd">
<svg version="1.0" xmlns="http://www.w3.org/2000/svg"
 width="260.000000pt" height="260.000000pt" viewBox="0 0 260.000000 260.000000"
 preserveAspectRatio="xMidYMid meet">
<metadata>
Created by potrace 1.11, written by Peter Selinger 2001-2013
</metadata>
<g transform="translate(0.000000,260.000000) scale(0.100000,-0.100000)"
fill="#000000" stroke="none">
<path d="M539 2463 c-1 -4 -2 -180 -3 -390 l-1 -382 100 -41 100 -41 0 -720
c0 -395 -2 -720 -5 -720 -3 -1 -77 -2 -165 -3 l-160 -1 -116 119 -117 119 39
56 c57 82 166 234 177 247 37 42 35 46 -69 147 l-100 98 28 37 c15 20 49 65
75 99 37 48 44 64 34 72 -10 8 -21 0 -46 -37 -19 -26 -37 -49 -40 -52 -17 -15
-80 -110 -80 -121 0 -7 43 -55 95 -106 l95 -93 -33 -47 c-19 -27 -73 -102
-120 -168 -48 -66 -87 -126 -87 -133 0 -7 57 -70 126 -140 l126 -127 930 0
c511 0 933 2 937 5 4 3 52 84 107 182 l101 176 -102 307 c-57 168 -104 307
-106 309 -2 2 -38 21 -79 43 -41 22 -93 51 -115 63 -22 13 -65 36 -95 53 -30
16 -81 45 -113 63 -32 19 -60 34 -62 34 -2 0 -30 15 -62 34 -61 35 -157 88
-285 158 -42 23 -75 44 -73 48 2 4 44 22 92 40 48 19 90 35 93 38 9 7 6 757
-3 769 -6 9 -51 -16 -162 -90 l-153 -102 -193 0 -194 1 -145 95 c-171 113
-170 112 -171 102z"/>
</g>
</svg>
