<svg id="Layer_1" xmlns="http://www.w3.org/2000/svg" viewBox="0 0 24 24"><style>.st0{fill:#58595b}.st1{fill:none}</style><path class="st0" d="M22.7 4.9L11.7 1h-.3L.4 4.8c-.3.1-.4.3-.4.5v11.5c0 .2.1.4.4.5L9 19.9v3.6c0 .2.1.3.2.4.1.1.2.1.3.1.1 0 .2 0 .2-.1l13-6.7c.2-.1.3-.3.3-.4V5.3c0-.2-.1-.4-.3-.4zM22 16.5l-12 6.2v-3.2c0-.2-.1-.4-.4-.5L1 16.4V5.7L11.5 2 22 5.7v10.8z"/><path class="st0" d="M4 7.5c0 .3.2.5.5.5h14c.3 0 .5-.2.5-.5s-.2-.5-.5-.5h-14c-.3 0-.5.2-.5.5zM18.5 10h-14c-.3 0-.5.2-.5.5s.2.5.5.5h14c.3 0 .5-.2.5-.5s-.2-.5-.5-.5zm-7 3h-7c-.3 0-.5.2-.5.5s.2.5.5.5h7c.3 0 .5-.2.5-.5s-.2-.5-.5-.5z"/><path class="st1" d="M0 0h24v24H0z" id="Frames-24px"/></svg>