<svg id="Layer_1" xmlns="http://www.w3.org/2000/svg" viewBox="0 0 640 160"><style>.st0{fill:#66d9e8}</style><path d="M217.8 15.8h11.5v48h24.6v10.1h-36V15.8zm45.8 0h36.2V26h-24.7v12.5h22.4v10.1h-22.4v15.2h24.7v10.1h-36.2V15.8zM329 75.1c-3.5 0-6.5-.7-9-2s-4.6-3.2-6.2-5.6c-3.5-5.1-5.2-12.6-5.2-22.5 0-5 .4-9.3 1.3-13.1.9-3.7 2.2-6.9 3.9-9.5 1.8-2.6 4-4.6 6.6-5.8 2.6-1.2 5.5-1.8 8.6-1.8 3.4 0 6.4.6 8.9 1.9s4.7 3.2 6.4 5.7c3.4 5.1 5.1 12.6 5.1 22.5s-1.7 17.4-5.1 22.5c-1.7 2.5-3.8 4.4-6.3 5.7-2.5 1.3-5.5 2-9 2zm0-10.3c3 0 5.1-1.6 6.5-4.7 1.3-3.1 2-8.1 2-15.1s-.7-12-2-15.1c-1.3-3.1-3.5-4.7-6.5-4.7-1.5 0-2.8.4-3.9 1.2-1 .8-1.9 2-2.6 3.5-1.3 3.1-2 8.1-2 15.1s.7 12.1 2 15.1c1.4 3.1 3.6 4.7 6.5 4.7zm28.6-49H370L386.2 58V15.8h10.1v58.1H384l-16.3-42.2v42.2h-10.1V15.8zm60.4 0h14l15.7 58.1h-11.5l-3.6-14.4h-15.4l-3.5 14.4h-11.5L418 15.8zm12.4 34.3L425 26.3l-5.4 23.8h10.8zm23.8-34.3h16.6c7.5 0 12.8 1.3 16.1 4 1.6 1.3 2.9 3.1 3.7 5.2.8 2.2 1.2 4.7 1.2 7.5 0 2.2-.2 4-.7 5.6-.5 1.6-1.2 2.9-2.2 4.1-.9 1.1-2.1 2.1-3.4 2.8-1.4.7-3 1.2-5 1.5.6.1 1.2.3 1.7.6s1 .6 1.3 1c.4.4.8 1 1.3 1.8s1.1 1.9 1.7 3.2L497 73.9h-12.6l-7-14.7-.8-1.7c-1.1-2.2-2.2-3.9-3.3-5-1.1-1.1-2.4-1.6-3.9-1.6h-3.7v23h-11.5V15.8zM471 41.3c3.1 0 5.4-.6 6.8-1.9.6-.6 1.1-1.3 1.5-2.3.4-1 .5-2.2.5-3.8 0-2.9-.7-4.9-2-6.1-1.4-1.2-3.6-1.8-6.8-1.8h-5.4v15.8h5.4zm31.3-25.5h12.3c9.5 0 16.3 2.3 20.5 6.8 2 2.2 3.6 5.2 4.7 8.9s1.6 8.1 1.6 13.4c0 10.2-2.1 17.7-6.3 22.2-4.2 4.6-11 6.8-20.5 6.8h-12.3V15.8zm14.6 47.8c4.5 0 7.7-1.4 9.7-4.3 1.9-2.9 2.9-7.7 2.9-14.5 0-6.7-1-11.5-2.9-14.4-1.9-2.8-5.1-4.2-9.7-4.2h-3.1v37.4h3.1zm52 11.5c-3.5 0-6.5-.7-9-2s-4.6-3.2-6.2-5.6c-3.5-5.1-5.2-12.6-5.2-22.5 0-5 .4-9.3 1.3-13.1.9-3.7 2.2-6.9 3.9-9.5 1.8-2.6 4-4.6 6.6-5.8 2.6-1.2 5.5-1.8 8.6-1.8 3.4 0 6.4.6 8.9 1.9 2.5 1.3 4.7 3.2 6.4 5.7 3.4 5.1 5.1 12.6 5.1 22.5s-1.7 17.4-5.1 22.5c-1.7 2.5-3.8 4.4-6.3 5.7-2.5 1.3-5.5 2-9 2zm0-10.3c3 0 5.1-1.6 6.5-4.7 1.3-3.1 2-8.1 2-15.1s-.7-12-2-15.1c-1.3-3.1-3.5-4.7-6.5-4.7-1.5 0-2.8.4-3.9 1.2-1 .8-1.9 2-2.6 3.5-1.3 3.1-2 8.1-2 15.1s.7 12.1 2 15.1c1.4 3.1 3.6 4.7 6.5 4.7zm-336 82.4c-1 0-1.9-.2-2.7-.5-.8-.4-1.5-.9-2.1-1.5-1.3-1.3-2-3-2-5.1 0-2.1.7-3.9 2-5.2 1.3-1.3 2.9-2 4.9-2 .9 0 1.8.2 2.6.5s1.6.8 2.3 1.5c1.3 1.3 2 3.1 2 5.2s-.7 3.8-2 5.1c-1.4 1.4-3.1 2-5 2zm52.2-.5c-3.7 0-7-.7-9.9-2-2.9-1.3-5.4-3.3-7.4-5.9-1.9-2.5-3.5-5.6-4.5-9.3s-1.6-8.1-1.6-13.1c0-4.8.5-9.1 1.5-12.8 1-3.7 2.6-6.9 4.7-9.5 4.2-5.2 10.1-7.7 17.7-7.7 1.3 0 2.5.1 3.7.2 1.1.2 2.3.4 3.4.7 2.2.6 4.3 1.6 6.3 2.9V103c-1.6-2.1-3.5-3.6-5.5-4.7-2.1-1-4.4-1.6-6.8-1.6-4.4 0-7.7 1.6-9.8 4.9-2.2 3.3-3.2 8.3-3.2 14.9 0 3.2.3 6.1.8 8.6s1.3 4.6 2.3 6.3c1 1.6 2.2 2.8 3.7 3.7 1.5.9 3.3 1.3 5.4 1.3.5 0 1.1 0 1.6-.1s1-.1 1.5-.3c.6-.1 1-.3 1.3-.4.3-.2.6-.3.9-.5V124h-7.9v-9.7H301V141c-2.2 1.9-4.6 3.3-7.3 4.3-1.3.5-2.7.9-4.1 1.1-1.4.2-2.9.3-4.5.3zM322 87.5h14l15.7 58.1h-11.5l-3.6-14.4h-15.4l-3.5 14.4h-11.5L322 87.5zm12.5 34.3L329 98l-5.4 23.8h10.9zm27.3-34.3h11.5v48h24.6v10.1h-36V87.5zm56.2 0h14l15.7 58.1h-11.5l-3.6-14.4h-15.4l-3.5 14.4h-11.5L418 87.5zm12.4 34.3L425 98l-5.4 23.8h10.8zm23.2-34.3h12.3l16.2 42.2V87.5h10.1v58.1H480l-16.3-42.2v42.2h-10.1V87.5zm61.6 10h-14.8v-10h41v10h-14.7v48.1h-11.5V97.5zm36.3-10h36.2v10.1H563v12.5h22.4v10.1H563v15.2h24.7v10.1h-36.2v-58z"/><path class="st0" d="M83 .1L17.2 31.7 1 102.9l45.5 57h73l45.5-57-16.2-71.2z"/></svg>