<svg xmlns="http://www.w3.org/2000/svg" width="24" height="24" viewBox="0 0 24 24"><path fill="none" stroke="#58595B" stroke-linejoin="round" stroke-miterlimit="10" d="M4.25 11.5l-2.75-5 2.75-5h5.5l2.75 5-2.75 5zM15.75 11.5L14 8.5l1.75-3h3.5l1.75 3-1.75 3zM5.5 13.5h11v6h-11z"/><path fill="none" stroke="#58595B" stroke-linecap="round" stroke-linejoin="round" stroke-miterlimit="10" d="M6.5 23.5l4-4 4 4"/><path fill="none" stroke="#58595B" stroke-linejoin="round" stroke-miterlimit="10" d="M16.5 16.499l5-2.999v6z"/><path fill="#58595B" d="M6.999 5.501a.2.2 0 0 0-.141.059l-.799.799a.2.2 0 0 0 0 .283l.799.799a.2.2 0 0 0 .282 0l.8-.799a.2.2 0 0 0 0-.283l-.799-.799a.2.2 0 0 0-.142-.059zM17.499 7.501a.2.2 0 0 0-.141.059l-.799.799a.2.2 0 0 0 0 .283l.799.799a.2.2 0 0 0 .282 0l.799-.799a.2.2 0 0 0 0-.283l-.798-.799a.2.2 0 0 0-.142-.059z"/><g><path fill="none" d="M0 0h24v24H0z"/></g></svg>