<svg id="Layer_1" xmlns="http://www.w3.org/2000/svg" viewBox="0 0 24 24"><style>.st0{fill:#58595b}.st1{fill:none}</style><path class="st0" d="M7.5 6H19v6.5c0 .3.2.5.5.5s.5-.2.5-.5v-7c0-.3-.2-.5-.5-.5h-12c-.3 0-.5.2-.5.5s.2.5.5.5zm7 9c.3 0 .5-.2.5-.5s-.2-.5-.5-.5H2v-3.5c0-.3-.2-.5-.5-.5s-.5.2-.5.5v7c0 .3.2.5.5.5H10v3H6.5c-.3 0-.5.2-.5.5s.2.5.5.5h8c.3 0 .5-.2.5-.5s-.2-.5-.5-.5H11v-3h3.5c.3 0 .5-.2.5-.5s-.2-.5-.5-.5H2v-2h12.5zM6 8.5v-7c0-.3-.2-.5-.5-.5h-5c-.3 0-.5.2-.5.5v7c0 .3.2.5.5.5h5c.3 0 .5-.2.5-.5zM5 8H1V2h4v6zm17.5 6h-6c-.3 0-.5.2-.5.5v9c0 .3.2.5.5.5h6c.3 0 .5-.2.5-.5v-9c0-.3-.2-.5-.5-.5zm-.5 1v6h-5v-6h5zm-5 8v-1h5v1h-5z"/><path class="st0" d="M2.5 7h1c.3 0 .5-.2.5-.5S3.8 6 3.5 6h-1c-.3 0-.5.2-.5.5s.2.5.5.5zm11.1.6c-.2.2-.2.5 0 .7l3 3c.1.1.2.1.4.1s.3 0 .4-.1c.2-.2.2-.5 0-.7l-3-3c-.2-.1-.6-.1-.8 0zm4.3 1.3c.2-.2.2-.5 0-.7l-1-1c-.2-.2-.5-.2-.7 0s-.2.5 0 .7l1 1c0 .1.2.1.3.1s.3 0 .4-.1z"/><path class="st1" d="M0 0h24v24H0z" id="Frames-24px"/></svg>