<svg id="Layer_1" xmlns="http://www.w3.org/2000/svg" viewBox="0 0 24 24"><style>.st0{fill:#58595b}.st1{fill:none}</style><path class="st0" d="M23.8 1.1c-.1-.1-.3-.1-.4-.1l-15 4c-.2.1-.4.3-.4.5V16H1.5c-.3 0-.5.2-.5.5v7c0 .2.1.3.2.4.1.1.2.1.3.1h.1l7-2h.2l.1-.1.1-.1V9.4l14-3.7V13h-6.5c-.3 0-.5.2-.5.5v7c0 .2.1.3.2.4.1.1.2.1.3.1h.1l7-2h.1s.1 0 .1-.1l.1-.1s0-.1.1-.1V1.5c0-.2-.1-.3-.2-.4zM2 17h6v4.1l-6 1.7V17zm7-8.7V5.9l14-3.7v2.5L9 8.3zm8 5.7h6v4.1l-6 1.7V14z"/><path class="st1" d="M0 0h24v24H0z" id="Frames-24px"/></svg>