<svg id="Layer_1" xmlns="http://www.w3.org/2000/svg" viewBox="0 0 24 24"><style>.st0{fill:#58595b}.st1{fill:none}</style><path class="st0" d="M22.9 5.3L21 1.9V.5c0-.3-.2-.5-.5-.5s-.5.2-.5.5v1.4l-1.9 3.4c-.1 0-.1.1-.1.2v17c0 .2.1.4.3.4l2 1c.1 0 .1.1.2.1s.2 0 .2-.1l2-1c.2-.1.3-.3.3-.4v-17c0-.1 0-.2-.1-.2zM19 6.7l1 1v10.8c0 .3.2.5.5.5s.5-.2.5-.5V7.7l1-1V20h-3V6.7zM20.5 3l1.4 2.4-1.4 1.4-1.4-1.4L20.5 3zm0 19.9l-1.5-.7V21h3v1.2l-1.5.7zM13.9 1.1c-.1 0-.3-.1-.4-.1H.5c-.3 0-.5.2-.5.5v22c0 .3.2.5.5.5h15c.3 0 .5-.2.5-.5v-20c0-.1-.1-.3-.1-.4l-2-2zM1 17h14v2H1v-2zM13.3 2L15 3.7V16H1V2h12.3zM1 23v-3h14v3H1z"/><path class="st0" d="M4.3 10.9l3.5 2c0 .1.1.1.2.1s.2 0 .2-.1l3.5-2c.2-.1.3-.3.3-.4v-4c0-.2-.1-.3-.3-.4l-3.5-2c-.1-.1-.3-.1-.4 0l-3.5 2c-.2.1-.3.2-.3.4v4c0 .2.1.3.3.4zM5 6.8l3-1.7 3 1.7v3.4l-3 1.7-3-1.7V6.8z"/><path class="st1" d="M0 0h24v24H0z" id="Frames-24px"/></svg>