<svg id="Layer_1" xmlns="http://www.w3.org/2000/svg" viewBox="0 0 24 24"><style>.st0{fill:#58595b}.st1{fill:none}</style><path class="st0" d="M13 10.5c0-.3-.2-.5-.5-.5h-1c-.3 0-.5.2-.5.5s.2.5.5.5h1c.3 0 .5-.2.5-.5z"/><path class="st0" d="M.4 11c.3 0 .5-.1.6-.4L2.9 2h18.2l1.9 8.6c.1.2.3.4.5.4h.1c.3-.1.4-.3.4-.6l-2-9c-.1-.2-.3-.4-.5-.4h-19c-.2 0-.4.2-.5.4l-2 9c0 .3.1.5.4.6z"/><path class="st0" d="M11.2 16.1l-1-.5c-.2-.1-.3-.1-.5 0l-1.5.9L10 9.6c0-.1 0-.3-.1-.4-.1-.1-.2-.2-.4-.2H8c-.2 0-.4.1-.5.3l-.8 2.2.3-1.9c0-.1 0-.3-.1-.4-.1-.1-.3-.2-.4-.2H5c-.2 0-.4.1-.5.4l-1 3.3v-1.2c0-.3-.2-.5-.5-.5H2c-.2 0-.4.2-.5.4l-1 5.5v.2l.5 3.4-1 2.9c-.1.3.1.5.3.6h.2c.2 0 .4-.1.5-.3l1-3v-.2L1.5 17l.9-5h.1v4c0 .2.2.5.4.5s.5-.1.6-.3L5.4 10h.5L5 15.9c0 .3.1.5.4.6.2.1.5-.1.6-.3L8.3 10h.5L7 17.4c0 .2 0 .4.2.5.2.1.4.1.6 0l2.3-1.4.2.1-3.6 4.5c0 .1-.1.1-.1.2l-.5 2c-.1.3.1.5.4.6.1.1.4 0 .5-.3l.5-1.9 3.9-4.9c.1-.1.1-.3.1-.4s-.1-.3-.3-.3zM24 23.3l-1-2.9.5-3.4v-.2l-1-5.5c0-.2-.3-.4-.5-.4h-1c-.3 0-.5.2-.5.5v1.2l-1-3.3c-.1-.2-.3-.3-.5-.3h-1.5c-.1 0-.3.1-.4.2-.1.1-.1.2-.1.4l.3 1.9-.8-2.2c-.1-.2-.3-.3-.5-.3h-1.5c-.2 0-.3.1-.4.2-.1.1-.1.3-.1.4l1.7 6.8-1.5-.9c-.1-.1-.3-.1-.5 0l-1 .5-.3.3c-.1.1 0 .3.1.4l3.9 4.9.5 1.9c.1.3.3.4.6.4.3-.1.4-.3.4-.6l-.5-2c0-.1 0-.1-.1-.2l-3.6-4.5.2-.1 2.3 1.4c.2.1.4.1.6 0 .2-.1.2-.3.2-.5L15.1 10h.5l2.4 6.2c.1.2.3.4.6.3.2-.1.4-.3.4-.6l-.9-5.9h.5l1.9 6.1c.1.2.3.4.6.3.2 0 .4-.2.4-.5v-4h.1l.9 5-.5 3.5v.2l1 3c.1.2.3.3.5.3h.2c.2 0 .4-.3.3-.6zM6 5c.3 0 .5-.2.5-.5S6.3 4 6 4h-.5c-.3 0-.5.2-.5.5s.2.5.5.5H6zm2.5 0c.3 0 .5-.2.5-.5S8.8 4 8.5 4H8c-.3 0-.5.2-.5.5s.2.5.5.5h.5zM11 5c.3 0 .5-.2.5-.5S11.3 4 11 4h-.5c-.3 0-.5.2-.5.5s.2.5.5.5h.5zm2.5 0c.3 0 .5-.2.5-.5s-.2-.5-.5-.5H13c-.3 0-.5.2-.5.5s.2.5.5.5h.5zM16 5c.3 0 .5-.2.5-.5S16.3 4 16 4h-.5c-.3 0-.5.2-.5.5s.2.5.5.5h.5zm2.5 0c.3 0 .5-.2.5-.5s-.2-.5-.5-.5H18c-.3 0-.5.2-.5.5s.2.5.5.5h.5zm-14 1c-.3 0-.5.2-.5.5s.2.5.5.5H5c.3 0 .5-.2.5-.5S5.3 6 5 6h-.5zM7 7h.5c.3 0 .5-.2.5-.5S7.8 6 7.5 6H7c-.3 0-.5.2-.5.5s.2.5.5.5zm2.5 0h.5c.3 0 .5-.2.5-.5S10.3 6 10 6h-.5c-.3 0-.5.2-.5.5s.2.5.5.5zM12 7h.5c.3 0 .5-.2.5-.5s-.2-.5-.5-.5H12c-.3 0-.5.2-.5.5s.2.5.5.5zm2.5 0h.5c.3 0 .5-.2.5-.5S15.3 6 15 6h-.5c-.3 0-.5.2-.5.5s.2.5.5.5zM17 7h.5c.3 0 .5-.2.5-.5s-.2-.5-.5-.5H17c-.3 0-.5.2-.5.5s.2.5.5.5zm2.5 0h.5c.3 0 .5-.2.5-.5S20.3 6 20 6h-.5c-.3 0-.5.2-.5.5s.2.5.5.5z"/><path class="st1" d="M0 0h24v24H0z" id="Frames-24px"/></svg>