<svg id="Layer_1" data-name="Layer 1" xmlns="http://www.w3.org/2000/svg" viewBox="0 0 32.9 37.99"><defs><style>.cls-1{fill:#212121;}.cls-2{fill:#ced4da;}</style></defs><title>polygon</title><polygon class="cls-1" points="0 9.5 16.45 0 32.9 9.5 32.9 28.49 16.45 37.99 0 28.49 0 9.5"/><path class="cls-2" d="M16.88,14.75v1.47h.21a1.69,1.69,0,0,1,1.16.46,1.62,1.62,0,0,1,.66-.14,1.58,1.58,0,0,1,1.23.58,1.44,1.44,0,0,1,.38,0A1.52,1.52,0,0,1,22,18.6v1.45a6.09,6.09,0,0,1-.19,1.51L21.22,24A1.28,1.28,0,0,1,20,25H15.16a1.75,1.75,0,0,1-1.37-.68l-2.57-3.43a1.71,1.71,0,0,1,2.23-2.51V14.71A1.72,1.72,0,0,1,15.16,13,1.74,1.74,0,0,1,16.88,14.75Zm-2.57,0v6l-1-1.35a.91.91,0,0,0-.72-.36.86.86,0,0,0-.84.86.84.84,0,0,0,.17.52l2.57,3.43a.86.86,0,0,0,.68.34H20a.43.43,0,0,0,.42-.32L21,21.35a5.34,5.34,0,0,0,.16-1.3V18.6a.66.66,0,0,0-.64-.68.64.64,0,0,0-.64.64h-.21v-.41a.75.75,0,1,0-1.5,0v.43H18V18a.88.88,0,0,0-.86-.9.85.85,0,0,0-.86.86v.64H16V14.75a.88.88,0,0,0-.86-.9A.85.85,0,0,0,14.31,14.71ZM16,19.85h-.21v2.57H16Zm1.71,0h-.21v2.57h.21Zm1.71,0h-.21v2.57h.21Z"/></svg>