<svg id="Layer_1" data-name="Layer 1" xmlns="http://www.w3.org/2000/svg" viewBox="0 0 32.9 37.99"><defs><style>.cls-1{fill:#212121;}.cls-2{fill:#ced4da;}</style></defs><title>polygon</title><polygon class="cls-1" points="0 9.5 16.45 0 32.9 9.5 32.9 28.49 16.45 37.99 0 28.49 0 9.5"/><path class="cls-2" d="M22.84,13.93h1.92V26.72H8.14V13.93h1.92v-.64h1.28v.64h1.92V12.65q0-1.28,1.16-1.28h4a1.23,1.23,0,0,1,1.28,1.28v1.28h1.92v-.64h1.28Zm1.28,2.56V14.57H22.84v.64H21.56v-.64H11.34v.64H10.06v-.64H8.78v1.92Zm0,9.59V17.13H8.78v8.95ZM13.89,13.93H19v-1.2q0-.72-.68-.72H14.45c-.37,0-.56.24-.56.72Z"/></svg>